<svg width="122" height="122" viewBox="0 0 122 122" fill="none" xmlns="http://www.w3.org/2000/svg">
<circle cx="61" cy="61" r="61" fill="#311ABF"/>
<path d="M69.92 49.92H61.82V78H56.54V49.92H50.9V47.46L56.54 45.66V43.8C56.54 39.64 57.46 36.66 59.3 34.86C61.14 33.02 63.7 32.1 66.98 32.1C68.26 32.1 69.42 32.22 70.46 32.46C71.54 32.66 72.46 32.9 73.22 33.18L71.84 37.32C71.2 37.12 70.46 36.92 69.62 36.72C68.78 36.52 67.92 36.42 67.04 36.42C65.28 36.42 63.96 37.02 63.08 38.22C62.24 39.38 61.82 41.22 61.82 43.74V45.84H69.92V49.92Z" fill="white"/>
</svg>
