<svg width="122" height="122" viewBox="0 0 122 122" fill="none" xmlns="http://www.w3.org/2000/svg">
<circle cx="61" cy="61" r="61" fill="#311ABF"/>
<path d="M73.38 45.24C77.02 45.24 79.74 46.18 81.54 48.06C83.34 49.9 84.24 52.9 84.24 57.06V78H79.02V57.3C79.02 52.22 76.84 49.68 72.48 49.68C69.36 49.68 67.12 50.58 65.76 52.38C64.44 54.18 63.78 56.8 63.78 60.24V78H58.56V57.3C58.56 52.22 56.36 49.68 51.96 49.68C48.72 49.68 46.48 50.68 45.24 52.68C44 54.68 43.38 57.56 43.38 61.32V78H38.1V45.84H42.36L43.14 50.22H43.44C44.44 48.54 45.78 47.3 47.46 46.5C49.18 45.66 51 45.24 52.92 45.24C57.96 45.24 61.24 47.04 62.76 50.64H63.06C64.14 48.8 65.6 47.44 67.44 46.56C69.32 45.68 71.3 45.24 73.38 45.24Z" fill="white"/>
</svg>
