<svg width="122" height="122" viewBox="0 0 122 122" fill="none" xmlns="http://www.w3.org/2000/svg">
<circle cx="61" cy="61" r="61" fill="#311ABF"/>
<path d="M65.84 74.28C66.64 74.28 67.46 74.22 68.3 74.1C69.14 73.94 69.82 73.78 70.34 73.62V77.64C69.78 77.92 68.98 78.14 67.94 78.3C66.9 78.5 65.9 78.6 64.94 78.6C63.26 78.6 61.7 78.32 60.26 77.76C58.86 77.16 57.72 76.14 56.84 74.7C55.96 73.26 55.52 71.24 55.52 68.64V49.92H50.96V47.4L55.58 45.3L57.68 38.46H60.8V45.84H70.1V49.92H60.8V68.52C60.8 70.48 61.26 71.94 62.18 72.9C63.14 73.82 64.36 74.28 65.84 74.28Z" fill="white"/>
</svg>
