<svg width="122" height="122" viewBox="0 0 122 122" fill="none" xmlns="http://www.w3.org/2000/svg">
<circle cx="61" cy="61" r="61" fill="#311ABF"/>
<path d="M68.38 77.94L62.86 59.82C62.34 58.18 61.88 56.58 61.48 55.02C61.12 53.42 60.84 52.18 60.64 51.3H60.4C60.24 52.18 59.98 53.42 59.62 55.02C59.26 56.58 58.8 58.2 58.24 59.88L52.48 77.94H46.48L37.66 45.78H43.12L47.56 62.94C48 64.66 48.42 66.4 48.82 68.16C49.22 69.92 49.5 71.38 49.66 72.54H49.9C50.06 71.86 50.24 71.02 50.44 70.02C50.68 69.02 50.94 67.98 51.22 66.9C51.5 65.78 51.78 64.78 52.06 63.9L57.76 45.78H63.52L69.04 63.9C69.48 65.26 69.9 66.74 70.3 68.34C70.74 69.94 71.04 71.32 71.2 72.48H71.44C71.56 71.48 71.82 70.1 72.22 68.34C72.66 66.58 73.12 64.78 73.6 62.94L78.1 45.78H83.5L74.56 77.94H68.38Z" fill="white"/>
</svg>
